<svg xmlns="http://www.w3.org/2000/svg" width="223.932" height="318.396" viewBox="0 0 223.932 318.396"><defs><style>.a{fill:#fff;}.b{fill:#957f6e;}.c{fill:#211715;}.d{fill:#b3b3b3;}</style></defs><path class="a" d="M125.484,169.6A59.288,59.288,0,0,1,98.5,163.8c4.191,15.9,8.465,30.765,13.557,45.661,4.845,14.177,7.43,19.8,13.373,34.433,6.047-15.024,8.977-20.5,13.574-34.931,5.007-15.722,9.056-30.006,13.206-45.854A58.044,58.044,0,0,1,125.484,169.6Z"/><path class="b" d="M62.3,109.615a261.493,261.493,0,0,0,1.259-27.234C62.58,52.62,70.341,31.038,82.577,19.222,89.952,12.1,106.573,2.4,125.248,2.4a67.29,67.29,0,0,1,27.107,5.238l1.4.8,8.575,5.025a61.044,61.044,0,0,1,6.985,6.034c9.337,9.087,15.826,25.434,16.86,40.074.3,4.223.983,15.211.323,22.816.332,24.916,4.925,38.861,7.3,45.725a45.6,45.6,0,0,1,2.88,15.608c.084,9.326-12.768,21.335-25.537,17.7l-94.386,1.2c-12.2.294-20.144-8.686-20.077-16.966A96.9,96.9,0,0,1,59.625,125,97.371,97.371,0,0,0,62.3,109.615Z"/><path class="a" d="M144.318,166.52c-14.84,4.976-32.822,3.841-45.815-2.706q-1.245-4.725-2.487-9.58c1.955-.906,3.381-1.566,3.473-1.6,4.5-1.625,4.32-4.517,4.887-7.752a61.53,61.53,0,0,0,.916-7.57A46.117,46.117,0,0,1,90.9,125.425a55.16,55.16,0,0,1-10.26-19.031,7.964,7.964,0,0,1-6.587-1.725c-3.9-3.193-5.522-7.646-6.51-10.557-1.4-4.111-1.483-10.754.6-14.36a6.809,6.809,0,0,1,6.118-3.4,7.518,7.518,0,0,1,4.529,1.3c1.462-.675,2.583-1.2,2.583-1.2,3.093-1.44,11.706-5.174,12.959-5.915A114.255,114.255,0,0,0,104.94,63.5c1.171-.27,1.816-.416,1.816-.416C120.58,59.965,139.9,49.16,145.294,41.34c2.1,6.575,3.42,12.522,10.474,22.028,4.606,6.207,10.521,10.106,14,12.809l2.4,1.863a7.347,7.347,0,0,1,5.008-1.687,6.81,6.81,0,0,1,6.118,3.4c2.079,3.606,1.991,10.249.6,14.36-.988,2.911-2.607,7.364-6.51,10.557a8.084,8.084,0,0,1-6.238,1.8l-.345-.058c-.751,2.259-1.736,4.29-2.06,5.274-1.634,4.436-10.969,20.449-22.585,25.709a67.116,67.116,0,0,0,.9,7.754c.57,3.24.39,6.13,4.89,7.76.084.028,1.124.514,2.594,1.207-.78,3.065-1.551,6.057-2.316,9A49.6,49.6,0,0,1,144.318,166.52Z"/><path class="c" d="M65.958,82.381c-.576-18.329,1.685-38.246,12.048-53.892A47.491,47.491,0,0,1,93.58,14,63.491,63.491,0,0,1,121.962,4.9a66.937,66.937,0,0,1,17.955,1.331,65.5,65.5,0,0,1,7.52,2.1c1.221.421,2.425.884,3.628,1.353.1.039.595.3.117.044.153.083.3.173.454.259l.906.518c2.686,1.534,5.107-2.611,2.423-4.145a46.463,46.463,0,0,0-11.774-4.3A73.127,73.127,0,0,0,126.674.008,67.3,67.3,0,0,0,94.582,7.946,55.184,55.184,0,0,0,75.836,23.284,67.79,67.79,0,0,0,65,46.1c-3.291,11.754-4.227,24.117-3.845,36.28.1,3.081,4.9,3.095,4.8,0Z"/><path class="c" d="M188.9,82.381a122.7,122.7,0,0,0,.1-15.437,122.579,122.579,0,0,0-1.075-13.124,69.535,69.535,0,0,0-11.857-30.083A56.54,56.54,0,0,0,163.54,11.385a2.418,2.418,0,0,0-3.284.861,2.455,2.455,0,0,0,.861,3.284,52.586,52.586,0,0,1,17.5,22.741,73.018,73.018,0,0,1,4.41,15.239A98.362,98.362,0,0,1,184.147,65.9a127.018,127.018,0,0,1-.051,16.486,2.42,2.42,0,0,0,2.4,2.4,2.448,2.448,0,0,0,2.4-2.4Z"/><path class="c" d="M61.161,82.381c-.009,13-.273,26.409-3.135,39.122-.569,2.53-1.305,5.012-1.809,7.558-.7,3.54-1.221,7.124-1.581,10.715a33.208,33.208,0,0,0-.09,8.845,17.719,17.719,0,0,0,3.227,7.418,22.814,22.814,0,0,0,18.976,8.979c3.086-.049,3.095-4.849,0-4.8-5.614.089-11.209-1.984-14.742-6.483a13.865,13.865,0,0,1-2.809-6.253c-.4-2.2,0-5.4.258-7.9.33-3.225.819-6.437,1.463-9.614.49-2.422,1.194-4.784,1.736-7.192a122.471,122.471,0,0,0,2.284-15.557c.766-8.255,1.016-16.554,1.022-24.841,0-3.089-4.8-3.094-4.8,0Z"/><path class="c" d="M184.1,82.381c.191,13.194,1.518,26.514,5.122,39.244,1.274,4.5,3.069,8.863,4.1,13.429.7,3.109,1.389,7.33.845,10.171a15.5,15.5,0,0,1-3.591,7.137c-4.584,5.346-11.775,8.657-18.8,6.74-2.984-.814-4.257,3.815-1.276,4.629,7.281,1.987,14.741-.349,20.459-5.037a23.92,23.92,0,0,0,6.217-7.643,18.353,18.353,0,0,0,1.83-9.584,49.412,49.412,0,0,0-2.453-12.681c-.594-1.82-1.24-3.622-1.813-5.45a117.914,117.914,0,0,1-3.556-14.689A164.4,164.4,0,0,1,188.9,82.381c-.044-3.086-4.844-3.095-4.8,0Z"/><path class="c" d="M169.25,102.809a23.762,23.762,0,0,1-1.816,5.723c-.28.679-.58,1.351-.843,2.037-.074.194-.144.39-.215.586-.028.076-.062.151-.089.227-.155.442.182-.409.058-.134a51.527,51.527,0,0,1-3.1,5.762,57.593,57.593,0,0,1-12.37,14.606,22.907,22.907,0,0,1-9.2,4.763c-3.008.7-1.735,5.324,1.276,4.628,7.068-1.633,12.95-6.794,17.564-12.159a63.186,63.186,0,0,0,9.827-14.835,40.967,40.967,0,0,0,3.712-11.2,2.41,2.41,0,0,0-2.4-2.4,2.462,2.462,0,0,0-2.4,2.4Z"/><path class="c" d="M77.238,102.993c3.322,14.3,12.281,28.174,25.219,35.524a32.736,32.736,0,0,0,11.284,4.012,2.478,2.478,0,0,0,2.952-1.677,2.418,2.418,0,0,0-1.676-2.952c-13.914-2.07-24.672-14.4-30.055-26.68a54.193,54.193,0,0,1-3.095-9.5c-.7-3.007-5.328-1.734-4.629,1.276Z"/><path class="c" d="M81.26,76.6A10.386,10.386,0,0,0,69.829,75a10.039,10.039,0,0,0-5.092,6.967,26.256,26.256,0,0,0,4.041,20.408c2.86,4.15,6.914,7.128,12.151,6.413a2.415,2.415,0,0,0,1.676-2.953,2.465,2.465,0,0,0-2.952-1.676c-3.589.49-6.4-3.364-7.876-6.082A22.632,22.632,0,0,1,69,89.178a19.657,19.657,0,0,1,.214-5.257,11.894,11.894,0,0,1,.582-2.14,6.767,6.767,0,0,1,.5-.96c.035-.059.41-.6.246-.387a4.8,4.8,0,0,1,2.935-1.613,5.229,5.229,0,0,1,4.389,1.172c2.286,2.068,5.69-1.317,3.394-3.395Z"/><path class="c" d="M173.56,79.993a5.318,5.318,0,0,1,7.385.518c-.325-.4.133.224.185.31a6.659,6.659,0,0,1,.5.96,11.631,11.631,0,0,1,.549,1.967,19.492,19.492,0,0,1,.248,5.43,22.583,22.583,0,0,1-2.693,8.739c-1.47,2.765-4.31,6.736-7.958,6.238a2.483,2.483,0,0,0-2.952,1.676,2.417,2.417,0,0,0,1.676,2.953c8.535,1.165,13.495-7.153,15.749-14.183a24.769,24.769,0,0,0,.716-11.253,11.221,11.221,0,0,0-4.357-7.77,10.288,10.288,0,0,0-12.439,1.02c-2.3,2.077,1.107,5.463,3.394,3.395Z"/><path class="c" d="M118.42,46.217a61.761,61.761,0,0,1-14.969,15.418,113.6,113.6,0,0,1-9.774,6.5,53.642,53.642,0,0,1-5.647,2.714c-2.624,1.177-5.263,2.324-7.872,3.535a2.42,2.42,0,0,0-.861,3.284,2.457,2.457,0,0,0,3.284.861c4.273-1.984,8.8-3.616,12.922-5.895a88.1,88.1,0,0,0,18.966-14.148,59.388,59.388,0,0,0,8.1-9.85c1.691-2.6-2.463-5-4.145-2.422Z"/><path class="c" d="M143.375,39.9c-.119.178-.241.353-.366.527-.248.345.1-.109-.177.23q-.544.662-1.134,1.285a34.21,34.21,0,0,1-2.508,2.368,58.405,58.405,0,0,1-6.641,4.846A95.844,95.844,0,0,1,115.862,57.7a69.152,69.152,0,0,1-9.744,3.072c-3.01.689-1.736,5.318,1.276,4.629a83.472,83.472,0,0,0,18.392-6.909,83.725,83.725,0,0,0,16.113-10.2,28.527,28.527,0,0,0,5.621-5.959c1.728-2.571-2.428-4.976-4.145-2.423Z"/><path class="c" d="M171.462,74.48c-2.494-1.93-5.062-3.757-7.441-5.831a47.29,47.29,0,0,1-8.213-9.364,52.7,52.7,0,0,1-5.024-9.154c-1.1-2.654-1.925-5.411-2.777-8.151-.915-2.94-5.55-1.686-4.629,1.276,2.036,6.546,4.433,12.726,8.285,18.452a51.9,51.9,0,0,0,8.528,9.951c2.45,2.179,5.535,4.4,7.877,6.215a2.481,2.481,0,0,0,3.394,0,2.416,2.416,0,0,0,0-3.394Z"/><path class="c" d="M102.859,137.863a61.26,61.26,0,0,1-.76,6.171,35.993,35.993,0,0,1-.669,3.739c-.043.15-.311.848-.142.481a5.616,5.616,0,0,1-.385.69c-.208.321.21-.228-.05.071-.08.092-.163.181-.249.266a2.226,2.226,0,0,1-.689.52,22.12,22.12,0,0,1-2.057.949c-3.564,1.621-7.1,3.3-10.662,4.932q-1.379.635-2.76,1.261c-.328.148-.658.293-.986.441-.609.274.552-.2.011-.007a2.463,2.463,0,0,0-1.677,2.953,2.422,2.422,0,0,0,2.953,1.676c1.416-.507,2.786-1.217,4.152-1.844q3.281-1.5,6.554-3.028l4.838-2.239a1.98,1.98,0,0,0,.389-.176c-.016.013-.906.362-.374.166.261-.1.517-.207.774-.317a10.073,10.073,0,0,0,1.394-.7,8.118,8.118,0,0,0,3.3-3.973,19.649,19.649,0,0,0,.883-4.129c.434-2.625.83-5.248,1.011-7.906a2.4,2.4,0,0,0-4.8,0Z"/><path class="c" d="M143.743,137.4a81.69,81.69,0,0,0,1.411,11.025,8.754,8.754,0,0,0,5.8,6.671c.949.373-.586-.29.046.011.238.114.478.221.716.332q1.15.538,2.3,1.082,3.042,1.434,6.081,2.876c1.375.65,2.738,1.339,4.132,1.945a2.479,2.479,0,0,0,3.284-.861,2.417,2.417,0,0,0-.861-3.283c-3.009-1.307-5.945-2.806-8.91-4.207-1.4-.663-2.8-1.337-4.215-1.981A17.478,17.478,0,0,1,151.38,150a3.037,3.037,0,0,1-1.357-1.847,33.5,33.5,0,0,1-.734-4.046,63.431,63.431,0,0,1-.746-6.706,2.453,2.453,0,0,0-2.4-2.4,2.423,2.423,0,0,0-2.4,2.4Z"/><path class="c" d="M117.1,116.917a18.9,18.9,0,0,0,9.1,2.107,14.821,14.821,0,0,0,9.191-2.714,2.414,2.414,0,0,0,0-3.395,2.462,2.462,0,0,0-3.394,0c.73-.568.172-.139-.016-.019s-.37.225-.561.325c-.1.052-.2.1-.3.15-.366.188.01-.1.1-.035a4.548,4.548,0,0,0-.775.281,13.727,13.727,0,0,1-2.166.495c.357-.054-.043,0-.2.016q-.318.032-.638.053c-.513.033-1.027.046-1.54.043q-.69,0-1.379-.05-.317-.021-.632-.052c-.031,0-.8-.112-.294-.032a15.724,15.724,0,0,1-2.024-.449c-.284-.085-.56-.187-.84-.283-.61-.208.363.187-.188-.073q-.521-.244-1.028-.513a2.4,2.4,0,1,0-2.423,4.145Z"/><path class="c" d="M124.963,95.505a42.616,42.616,0,0,1,1,4.587l-.086-.638a2.738,2.738,0,0,1,.017.633l.086-.638a1.539,1.539,0,0,1-.069.285l.241-.573a1.159,1.159,0,0,1-.1.183l.375-.486a.913.913,0,0,1-.15.148l.486-.375a3.066,3.066,0,0,1-.363.192l.573-.242a2.62,2.62,0,0,1-.612.179l.638-.086a2.458,2.458,0,0,1-.575,0l.638.086c-.217-.031-.429-.083-.646-.112a1.812,1.812,0,0,0-.957-.043,1.78,1.78,0,0,0-.892.284,2.4,2.4,0,0,0-.861,3.284,2.3,2.3,0,0,0,1.434,1.1c.5.067.98.194,1.486.216a4.766,4.766,0,0,0,2.2-.523,3.179,3.179,0,0,0,1.759-2.095,5.232,5.232,0,0,0-.022-2.252c-.249-1.478-.591-2.942-.971-4.392a2.4,2.4,0,0,0-4.629,1.276Z"/><path class="c" d="M100.77,82.51c-.764,2.482-.266,8.191,4.436,8.677,6.215-.037,6.546-6.94,4.454-10.186C107.947,78.344,102.91,77.239,100.77,82.51Z"/><path class="c" d="M150.656,82.51c.764,2.482.266,8.191-4.436,8.677-6.215-.037-6.546-6.94-4.454-10.186C143.479,78.344,148.515,77.239,150.656,82.51Z"/><path class="d" d="M28.753,234.936c-5.836,18.786-6.689,45.618-3.322,60.222A27.021,27.021,0,0,0,46.77,315.6a24.539,24.539,0,0,0,4.987.377l.28,0c-19.819.034,130.923-.05,169.5-.062-.09-20.24-1.37-53.26-3.13-75.89v-.03c-2.13-19.21-2.8-53.35-18.75-66.61a66.3,66.3,0,0,0-15.49-9.48c-6.17-2.52-11.91-5.01-17.93-7.59h-5.6c-2.152-1.365-4.175-2.546-5.778-3.444-5.129,20.147-9.786,37.07-15.847,56.1-4.6,14.435-7.527,19.907-13.574,34.931-5.943-14.637-8.528-20.256-13.373-34.433-6.242-18.259-11.255-36.477-16.392-56.6a81.533,81.533,0,0,0-7.476,4.688c-11.507,4.282-23.508,8.682-31.08,14.226-.267.2-3.986,3.165-4.779,3.967-4.864,4.9-7.217,11.693-9.261,18.281Z"/><path class="c" d="M186.454,306.385c1.118-23.061,2.53-46.09,4.01-69.13q.717-11.153,1.365-22.308c.178-3.086-4.623-3.076-4.8,0-1.351,23.4-3.114,46.766-4.342,70.169-.371,7.088-.689,14.179-1.033,21.269-.15,3.087,4.651,3.08,4.8,0Z"/><path class="c" d="M55.062,318.377q11.442,0,22.884-.006l35.179-.015,40-.019,37.7-.018,28.242-.011h2.471c3.089,0,3.094-4.8,0-4.8l-26.539.011-37.059.017-40.1.019q-18.021.008-36.041.015-12.4,0-24.806.008H55.062c-3.088,0-3.093,4.8,0,4.8Z"/><path class="c" d="M112.95,245.733c-11.622-18.469-23.208-37-33.724-56.124-.681-1.237-1.349-2.48-2.024-3.72a3.658,3.658,0,0,1-.25-.455c-.066-.222-.124.314,0,.095a7.106,7.106,0,0,1,1.569-1.49c2.237-1.952,4.8-3.5,7.191-5.253a2.437,2.437,0,0,0,0-4.145c-1.471-.943-2.914-1.927-4.365-2.9-.738-.494-1.476-.986-2.222-1.467q-.449-.29-.9-.572c-.232-.145-.995-.86-.71-.347l.327,1.212.019-.42-.327,1.212c1.629-3.819,5.443-6.826,8.644-9.352a77.269,77.269,0,0,1,10.7-7.073L93.351,153.5c6.181,24.2,12.775,48.43,21.9,71.714,2.247,5.729,4.633,11.4,6.959,17.1a2.476,2.476,0,0,0,2.952,1.676,2.415,2.415,0,0,0,1.676-2.952c-4.174-10.225-8.4-20.4-12-30.85-4.129-11.971-7.775-24.1-11.139-36.307-1.983-7.2-3.873-14.423-5.72-21.657a2.427,2.427,0,0,0-3.526-1.434,73.916,73.916,0,0,0-16.121,11.7,33.2,33.2,0,0,0-3.282,3.718c-.984,1.3-2.23,2.973-1.972,4.682.323,2.135,3.1,3.181,4.722,4.255,1.831,1.21,3.636,2.46,5.483,3.645v-4.145c-2.327,1.713-4.763,3.27-7.029,5.066-2.164,1.715-4.832,3.9-3.931,7a18.489,18.489,0,0,0,1.735,3.454q1.023,1.88,2.062,3.75,2.026,3.651,4.105,7.271c5.845,10.195,11.94,20.246,18.123,30.238q5.192,8.389,10.456,16.732c1.641,2.609,5.8.2,4.145-2.422Z"/><path class="c" d="M128.848,241.816c4.123-10.091,8.512-20.04,11.892-30.416,3.938-12.092,7.488-24.317,10.83-36.587q2.9-10.63,5.595-21.313l-3.525,1.434a107.232,107.232,0,0,1,10.86,6.9c3.125,2.287,6.881,5.079,8.42,8.687l-.328-1.211.019.411.327-1.212c.306-.551-.283.077-.506.215q-.532.33-1.058.671c-.732.471-1.456.954-2.18,1.439-1.423.954-2.84,1.92-4.282,2.845a2.437,2.437,0,0,0,0,4.145c2.009,1.478,4.142,2.8,6.094,4.353.432.343.854.7,1.263,1.07a5.676,5.676,0,0,1,1.246,1.214c-.095-.2.02-.272-.279.276-.337.617-.667,1.236-1,1.853q-3.719,6.831-7.632,13.554c-5.446,9.4-11.093,18.682-16.815,27.915q-4.778,7.71-9.617,15.381c-1.65,2.622,2.5,5.034,4.144,2.423,12.128-19.273,24.365-38.589,35.067-58.7.826-1.552,1.269-3.112.448-4.784a10.372,10.372,0,0,0-2.791-3.07c-2.43-2.058-5.142-3.743-7.7-5.627v4.145c1.813-1.163,3.583-2.389,5.379-3.576,1.512-1,4.085-1.977,4.612-3.889.47-1.707-.785-3.429-1.762-4.718a28.28,28.28,0,0,0-3.3-3.625,83.945,83.945,0,0,0-16.2-11.221,2.425,2.425,0,0,0-3.525,1.434c-3.179,12.48-6.487,24.927-10.1,37.289-3.358,11.488-6.767,23.016-11.213,34.139-2.263,5.659-4.7,11.246-7,16.888a2.414,2.414,0,0,0,1.676,2.952,2.459,2.459,0,0,0,2.952-1.676Z"/><path class="c" d="M98.646,166.531c13.006,5.976,28.327,7,42.163,3.516a56.09,56.09,0,0,0,11.5-4.28c2.76-1.387.333-5.53-2.423-4.144-11.715,5.889-25.947,6.991-38.652,4.125a51.4,51.4,0,0,1-10.165-3.362,2.47,2.47,0,0,0-3.283.861,2.419,2.419,0,0,0,.861,3.284Z"/><path class="c" d="M26.439,234.3a121.748,121.748,0,0,0-4.4,22.351,151.32,151.32,0,0,0-.867,22.794c.131,3.311.39,6.616.826,9.9a46.092,46.092,0,0,0,1.971,9.355,29.88,29.88,0,0,0,13.329,15.986A28.666,28.666,0,0,0,49.107,318.3a44.853,44.853,0,0,0,13.739-1.437c3.006-.7,1.733-5.334-1.276-4.628-6.81,1.6-13.985,2.206-20.46-.962a24.914,24.914,0,0,1-12.335-13.352c-2.064-5.473-2.48-11.6-2.759-17.391a149.373,149.373,0,0,1,.57-21.487,117.948,117.948,0,0,1,4.481-23.471c.912-2.958-3.72-4.224-4.628-1.276Z"/><path class="c" d="M45.383,194.662a63.713,63.713,0,0,1,4.323-11.2,24.975,24.975,0,0,1,6.248-7.693c.893-.738,1.832-1.43,2.708-2.187-.618.534-.112.094.236-.151q.594-.418,1.2-.816,1.188-.779,2.418-1.488a96.284,96.284,0,0,1,11.371-5.507c4.807-2,9.694-3.808,14.574-5.622a2.467,2.467,0,0,0,1.676-2.953,2.419,2.419,0,0,0-2.952-1.676c-8.817,3.279-17.827,6.445-26.07,11.032-5.79,3.223-11.33,7.475-14.764,13.233a63.246,63.246,0,0,0-5.6,13.749c-.919,2.956,3.713,4.221,4.629,1.276Z"/><path class="c" d="M165.021,158.379c3.619,1.552,7.235,3.112,10.861,4.646,3.556,1.5,7.17,2.89,10.616,4.638,5.189,2.631,10.539,5.9,14.424,10.3,6.585,7.458,9.327,18.274,11.131,27.956,1.92,10.3,2.621,20.757,3.648,31.171,1.2,12.166,1.736,24.415,2.275,36.626.62,14.052,1.09,28.121,1.156,42.188.015,3.088,4.815,3.094,4.8,0-.059-12.559-.45-25.118-.963-37.665q-.422-10.283-1-20.559c-.344-6.06-.572-12.173-1.225-18.207-1.142-10.558-1.785-21.159-3.507-31.649s-4.337-21.714-10.694-30.453c-8.032-11.041-21.62-15.642-33.653-20.8q-2.726-1.167-5.448-2.338a2.482,2.482,0,0,0-3.284.861,2.417,2.417,0,0,0,.861,3.284Z"/><path class="a" d="M57.18,200.455l-41.472,1.2c-1.336-2.405-2.988-5.006-5.657-5.666a5.123,5.123,0,0,0-6.357,5.1,9.549,9.549,0,0,0,1.515,4.3q1.392,2.454,2.983,4.765a4.189,4.189,0,0,0-2.922.2A4.951,4.951,0,0,0,2.4,214.982c-.107,2.668.579,3.719,2.1,7.11A24.883,24.883,0,0,0,8.852,229.2a5.578,5.578,0,0,0-1.251,2.16,5.715,5.715,0,0,0,.361,3.6A64.405,64.405,0,0,0,12.22,241.5a5.194,5.194,0,0,0,3.494,1.944l.08.354a31.836,31.836,0,0,0,13.7,16.076,5.505,5.505,0,0,1,2.442,2.654c.28.989-.145,8.674,1.757,10.075,1,.735,2.754.792,3.58.908a90.049,90.049,0,0,0,15.29-1.829,38.958,38.958,0,0,0,9.445-3.053,5.3,5.3,0,0,0,2.314-1.769,3.472,3.472,0,0,0-.028-2.232,23.149,23.149,0,0,1-.341-4.576c.071-4.554,2.357-6.864,3.78-11.19,1.96-5.961,3.524-9.347,3.96-15.077.254-3.335-.55-6.644-1.236-9.917-1.438-6.858-2.556-13.148-4.029-19.614-.545-2.4-1.624-5.292-4.295-5.544a7.61,7.61,0,0,0-4.956,1.743"/><path class="c" d="M4.805,214.982a2.61,2.61,0,0,1,1.414-2.435c1.189-.527,1.965.089,2.808,1.009.256.281-.173-.272.018.024.074.114.148.228.219.345.155.253.3.512.449.77.34.6.663,1.206.977,1.818.815,1.589,1.61,3.194,2.363,4.813a12.913,12.913,0,0,1,1.274,4.3c.012.156.01.308.015.464,0,.11-.087.431,0,.05-.035.152-.076.3-.122.448.028-.092.208-.365-.032.075-.041.076-.515.776-.29.5a4.365,4.365,0,0,1-.328.352c-.017.017-.562.448-.259.237-.131.091-.782.439-.483.315-.1.039-.951.251-.505.189-.132.019-.938-.059-.534.026a1.214,1.214,0,0,1-.79-.348c.239.169-.073-.07-.1-.094-.125-.111-.246-.228-.363-.346a10.147,10.147,0,0,1-.714-.8,19.612,19.612,0,0,1-1.331-2.03,62.321,62.321,0,0,1-2.871-5.891,7.847,7.847,0,0,1-.349-.831,9.614,9.614,0,0,1-.331-1.05c-.034-.139-.059-.279-.092-.419-.117-.5-.014.339-.029-.241-.011-.42-.029-.834-.016-1.256.1-3.089-4.7-3.086-4.8,0A12.921,12.921,0,0,0,1.257,220.7a57.917,57.917,0,0,0,3.257,6.671c1.107,1.85,2.539,3.946,4.507,4.969a6.6,6.6,0,0,0,6.408-.254,7.468,7.468,0,0,0,3.585-4.9c.438-2.422-.4-5.009-1.344-7.219-.868-2.035-1.878-4.022-2.892-5.989a14.55,14.55,0,0,0-2.935-4.4,7.011,7.011,0,0,0-7.785-1.294,7.425,7.425,0,0,0-4.053,6.7C-.016,218.072,4.784,218.075,4.805,214.982Z"/><path class="c" d="M58.391,202.527c.977-.671,2.66-1.872,3.873-1.34.89.391,1.3,1.714,1.576,2.637,1.092,3.708,1.688,7.62,2.439,11.409.815,4.111,1.7,8.211,2.5,12.324a25.26,25.26,0,0,1-.3,11.217,92.707,92.707,0,0,1-3.415,10.461c-1.235,3.23-3.048,6.038-3.426,9.556a22.826,22.826,0,0,0,.308,6.25c.051.293.095.6.163.885-.067-.284.37-.256-.015-.117-.619.225-1.277.749-1.9,1.034a43.969,43.969,0,0,1-10.9,3.022A88.874,88.874,0,0,1,38.67,271.1,11.464,11.464,0,0,1,36.354,271c-.263-.041-1.159-.265-1.149-.252-.4-.467-.306-1.7-.318-2.265-.061-3.085-4.861-3.1-4.8,0,.038,1.895.257,4.071,1.613,5.525s3.374,1.657,5.222,1.858a35.323,35.323,0,0,0,7.892-.542,73.585,73.585,0,0,0,13.214-2.556,30.566,30.566,0,0,0,5.88-2.422c2.088-1.188,3.262-2.936,2.882-5.382a20.738,20.738,0,0,1-.354-6.177,16.55,16.55,0,0,1,1.669-4.681,84.862,84.862,0,0,0,4.441-12.051,30.725,30.725,0,0,0,1.3-13.183c-.664-4.776-1.868-9.509-2.8-14.239-.5-2.552-1.013-5.1-1.555-7.648a30.2,30.2,0,0,0-1.812-6.537,6.927,6.927,0,0,0-4.421-3.973c-2.573-.669-5.2.471-7.286,1.9-2.53,1.738-.132,5.9,2.423,4.145Z"/><path class="c" d="M10.267,208.949A41.729,41.729,0,0,1,6.5,202.663c.163.362-.1-.253-.121-.327a8.062,8.062,0,0,1-.255-.928c-.133-.629-.038.328-.025-.32,0-.133.126-.957,0-.425.047-.209.109-.413.16-.621.1-.261.094-.269-.008-.023.044-.1.093-.193.145-.286a4.367,4.367,0,0,1,.4-.632c-.3.388.2-.158.267-.228q.186-.162-.065.029.182-.132.374-.248c.093-.055.617-.3.234-.149a8.645,8.645,0,0,1,.862-.248c-.431.125.126-.009.252-.013s.961.122.475.01c.206.047.407.111.611.162q.389.144-.011-.021c.091.041.181.085.269.133.207.108.4.238.6.358.454.272-.206-.221.151.114.2.186.4.364.59.561q.214.224.415.46c.09.105.178.213.265.322-.162-.209-.161-.2,0,.017.56.811,1.069,1.645,1.549,2.506a2.4,2.4,0,1,0,4.145-2.423c-1.983-3.555-5.027-7.489-9.62-6.954A7.55,7.55,0,0,0,2.2,197.4a8.041,8.041,0,0,0-.191,6.885,39.907,39.907,0,0,0,4.113,7.083,2.4,2.4,0,1,0,4.145-2.423Z"/><path class="c" d="M17.152,234.324c-.449-.575-.015-.008.092.141q.246.345.484.7.454.667.888,1.349c.11.172.22.344.325.519.066.109.131.219.191.331.014.026.235.577.116.225-.105-.307.014.073.038.149.036.116.068.234.1.353.02.084.107.473.038.127-.072-.365,0,.133.007.218,0,.119-.006.238,0,.357.01.475.037-.074.03-.106.045.209-.149.578-.2.78-.085.317.207-.35.026-.072-.066.1-.116.218-.18.323-.039.064-.261.4-.082.147.192-.269-.143.153-.19.2-.095.1-.2.187-.294.279-.332.312-.073.055.01,0a7.458,7.458,0,0,1-.717.433c-.529.271.29-.074-.269.112a7.617,7.617,0,0,1-.786.2c-.483.107.091,0,.106-.012-.068.055-.351.02-.444.021s-.829-.06-.477-.008-.372-.095-.461-.121c-.113-.033-.224-.085-.338-.111-.259-.059.372.218,0-.009-.129-.078-.265-.144-.393-.225-.066-.041-.394-.26-.134-.076s-.058-.055-.117-.11c-.094-.085-.185-.174-.272-.267-.071-.074-.561-.672-.27-.3.279.357-.122-.171-.191-.265-1.078-1.49-2.079-3.044-3.035-4.615-.183-.3-.365-.6-.535-.906-.033-.06-.1-.256-.154-.292.066.042.228.674.065.137-.052-.173-.112-.343-.158-.519-.036-.141-.058-.286-.094-.428-.064-.258,0,.324,0-.125,0-.144,0-.293-.005-.437-.019-.6-.129.362.011-.216.034-.14.08-.278.112-.417-.09.385.073-.15.132-.255.076-.136.161-.265.245-.4.256-.407-.145.147.194-.242A2.4,2.4,0,0,0,7.157,227.5a7.516,7.516,0,0,0-2.095,5.357,8.5,8.5,0,0,0,1.089,3.806,59.687,59.687,0,0,0,3.441,5.307,9.434,9.434,0,0,0,2.98,2.938,7.7,7.7,0,0,0,4.392.958c3.252-.295,6.425-2.481,7.1-5.821.714-3.524-1.466-6.489-3.52-9.117a2.4,2.4,0,0,0-3.394,0,2.474,2.474,0,0,0,0,3.394Z"/><path class="c" d="M13.722,245.011a35.285,35.285,0,0,0,9.245,13.117,61.1,61.1,0,0,0,5.606,4c1.908,1.305,1.584,4.292,1.514,6.358-.105,3.089,4.7,3.085,4.8,0,.1-2.9.083-6.475-1.888-8.8-1.5-1.767-3.818-2.716-5.629-4.12a31.606,31.606,0,0,1-9.5-12.979,2.415,2.415,0,0,0-3.284-.861,2.465,2.465,0,0,0-.861,3.284Z"/><path class="a" d="M55.952,173.472l-.985-7.7a4.878,4.878,0,0,0-5.454-4.218l-36,4.6A4.878,4.878,0,0,0,9.3,171.61l.984,7.7L17.5,235.767l.984,7.7a4.879,4.879,0,0,0,5.455,4.218l36-4.6a4.879,4.879,0,0,0,4.218-5.455l-.985-7.7Z"/><path class="c" d="M27.973,174.87l9.356-1.2a2.627,2.627,0,0,0,1.7-.7,2.4,2.4,0,0,0,0-3.394,2.308,2.308,0,0,0-1.7-.7l-9.356,1.2a2.633,2.633,0,0,0-1.7.7,2.4,2.4,0,0,0,0,3.394,2.308,2.308,0,0,0,1.7.7Z"/><path class="c" d="M58.352,173.472l-.825-6.452a13.475,13.475,0,0,0-.605-3.2,7.34,7.34,0,0,0-5.082-4.5,10.743,10.743,0,0,0-4.013.051l-5.6.715-28.165,3.6c-2.719.348-5.2,1.472-6.451,4.09-1.235,2.591-.527,5.345-.181,8.054l.817,6.388,3.711,29.027,3.084,24.118.374,2.928c.312,2.44.3,5.447,1.349,7.7a7.3,7.3,0,0,0,7.458,4.055c1.282-.153,2.561-.328,3.842-.492l29.643-3.79c1.056-.135,2.163-.207,3.207-.426a7.364,7.364,0,0,0,5.56-8.306L65.413,228.7l-3.389-26.5-3.472-27.16-.2-1.563a2.479,2.479,0,0,0-2.4-2.4,2.413,2.413,0,0,0-2.4,2.4L56.023,192.8l3.9,30.51.839,6.566.624,4.876c.236,1.845,1.155,4.776-1.046,5.758-.2.088-1.061.3-.406.174l-.054.007c-.122.021-.247.031-.37.047-.517.068-1.034.132-1.551.2l-5.509.7-16.008,2.047L24.75,245.182c-1.428.182-3,.257-3.694-1.31-.085-.19-.3-1.059-.175-.414-.015-.077-.019-.156-.03-.233-.067-.465-.119-.933-.179-1.4l-.51-3.989-2.249-17.594L13.9,188.887c-.732-5.726-1.621-11.469-2.2-17.211a2.651,2.651,0,0,1,1.426-2.958c.07-.031,1.149-.3.389-.163.02,0,.042,0,.062-.008.118-.022.24-.03.359-.045,1.346-.18,2.694-.345,4.041-.517L33,166.065l13.9-1.777c.869-.111,1.739-.25,2.612-.334a2.632,2.632,0,0,1,2.9,1.433c.042.1.3,1.117.165.409.016.088.022.179.035.268.063.449.115.9.172,1.35l.775,6.058a2.477,2.477,0,0,0,2.4,2.4A2.414,2.414,0,0,0,58.352,173.472Z"/></svg>